HIERARCHY
ROOT Hips
{
	OFFSET 0.00000 0.00000 0.00000
	CHANNELS 6 Xposition Yposition Zposition Yrotation Zrotation Xrotation 
	JOINT Lumbar
	{
		OFFSET 0 0 0
		CHANNELS 3 Zrotation Xrotation Yrotation
		JOINT Neck
		{
			OFFSET 0.00 0.2701 0.00
			CHANNELS 3 Zrotation Xrotation Yrotation
			End Site
			{
				OFFSET 0.00 0.1379 0.00
			}
		}
		JOINT RightShoulder
		{
			OFFSET 0.0119 0.2289 0.1181
			CHANNELS 3 Zrotation Xrotation Yrotation
			JOINT RightElbow
			{
				OFFSET 0.00 -0.1475 0.00
				CHANNELS 2 Zrotation Yrotation
				JOINT RightWrist
				{
					OFFSET 0.00 -0.1605 0.00
					CHANNELS 2 Zrotation Xrotation
					End Site
					{
						OFFSET 0.0040 -0.1068 0.0006
					}
				}
			}
		}
		JOINT LeftShoulder
		{
			OFFSET 0.0119 0.2289 -0.1181
			CHANNELS 3 Zrotation Xrotation Yrotation
			JOINT LeftElbow
			{
				OFFSET 0.00 -0.1475 0.00
				CHANNELS 2 Zrotation Yrotation
				JOINT LeftWrist
				{
					OFFSET 0.00 -0.1605 0.00
					CHANNELS 2 Zrotation Xrotation
					End Site
					{
						OFFSET 0.0040 -0.1068 -0.0006
					}
				}
			}
		}
	}
	JOINT RightHip
	{
		OFFSET 0.0316 -0.0424 0.0458
		CHANNELS 3 Zrotation Xrotation Yrotation
		JOINT RightKnee
		{
			OFFSET 0.00 -0.2438 0.00
			CHANNELS 1 Zrotation
			JOINT RightAnkle
			{
				OFFSET 0.00 -0.2449 0.00
				CHANNELS 3 Zrotation Xrotation Yrotation
				End Site
				{
					OFFSET 0.1237 -0.0542 0.0051
				}
			}
		}
	}
	JOINT LeftHip
	{
		OFFSET 0.0316 -0.0424 -0.0458
		CHANNELS 3 Zrotation Xrotation Yrotation
		JOINT LeftKnee
		{
			OFFSET 0.00 -0.2438 0.00
			CHANNELS 1 Zrotation
			JOINT LeftAnkle
			{
				OFFSET 0.00 -0.2449 0.00
				CHANNELS 3 Zrotation Xrotation Yrotation
				End Site
				{
					OFFSET 0.1237 -0.0542 -0.0051
				}
			}
		}
	}
}
MOTION
Frames: 33
Frame Time: 0.02
0.00338 -0.00048 -0.00761 173.3136 -31.77362 -0.75058 43.31268 1.15428 -9.35432 -7.40619 -4.27426 -0.30319 -25.7854 -13.78254 3.72394 42.04121 91.08931 7.47521 -0.50631 -28.7289 17.446 -0.19721 43.8794 -94.76546 15.45692 0.96216 32.94756 3.33067 -11.52964 -20.71912 -7.81869 -4.56812 -3.14412 32.55551 13.10365 5.71825 -19.59411 -10.4103 5.05329 3.56176
0.00269 -0.0006 -0.00849 173.2402 -31.71933 -0.51824 42.87802 1.24151 -8.84657 -7.32931 -4.26811 -0.32205 -25.55763 -13.94575 3.62012 41.6516 90.92104 7.66356 -0.56891 -28.72576 17.21168 -0.00097 43.22595 -94.95636 15.88932 0.98442 32.66374 3.21167 -11.60728 -20.62957 -7.7633 -4.53431 -3.12047 33.29369 12.8819 5.76611 -21.20399 -10.42685 5.05399 3.56274
0.002 -0.00071 -0.00938 173.16686 -31.66582 -0.2862 42.44472 1.32857 -8.33931 -7.25248 -4.26162 -0.34086 -25.32991 -14.1083 3.51549 41.26172 90.75624 7.85202 -0.63076 -28.72302 16.97791 0.19456 42.57447 -95.14663 16.32073 1.0066 32.38116 3.09271 -11.68444 -20.54023 -7.70805 -4.50058 -3.09687 34.03223 12.66043 5.8146 -22.81112 -10.44307 5.05436 3.56351
0.00131 -0.00082 -0.01026 173.09365 -31.61179 -0.0545 42.01141 1.41554 -7.83295 -7.17581 -4.25543 -0.35967 -25.10273 -14.27098 3.41178 40.87306 90.58907 8.03992 -0.69304 -28.71993 16.74427 0.39019 41.92301 -95.33692 16.75185 1.0288 32.0983 2.97402 -11.76181 -20.45096 -7.65282 -4.46687 -3.07328 34.76857 12.43931 5.86243 -24.41651 -10.45951 5.055 3.56444
0.00062 -0.00093 -0.01115 173.02044 -31.55674 0.17732 41.5767 1.50267 -7.3265 -7.09914 -4.24971 -0.37854 -24.87578 -14.43439 3.30937 40.48525 90.41705 8.2274 -0.75635 -28.71634 16.51018 0.58654 41.26965 -95.52788 17.18383 1.05106 31.814 2.85543 -11.83976 -20.36147 -7.59745 -4.43308 -3.04963 35.50356 12.21801 5.90933 -26.02351 -10.47642 5.05611 3.56567
-8e-05 -0.00104 -0.01203 172.94684 -31.50646 0.4098 41.14638 1.58958 -6.8176 -7.02195 -4.2416 -0.39723 -24.64646 -14.59514 3.20015 40.09108 90.26724 8.41787 -0.81518 -28.71542 16.27713 0.78032 40.62218 -95.71671 17.61401 1.07308 31.53501 2.73569 -11.91525 -20.27246 -7.54248 -4.39949 -3.02614 36.24949 11.99617 5.96116 -27.6306 -10.4912 5.05497 3.56549
-0.00075 -0.00115 -0.01292 172.8741 -31.4467 0.64074 40.7078 1.6768 -6.31417 -6.94595 -4.23832 -0.41625 -24.42212 -14.76102 3.10454 39.71002 90.0737 8.60227 -0.88274 -28.70901 16.04216 0.97911 39.96347 -95.90953 18.04734 1.09557 31.24583 2.61837 -11.99559 -20.18264 -7.48677 -4.36552 -3.00236 36.9726 11.77577 6.00302 -29.23652 -10.51018 5.05828 3.5681
-0.00145 -0.00127 -0.0138 172.8006 -31.39557 0.87303 40.27663 1.76376 -5.80574 -6.86877 -4.23056 -0.43497 -24.19327 -14.92223 2.99675 39.3171 89.91903 8.79197 -0.94263 -28.70788 15.80908 1.1732 39.31534 -96.09884 18.47776 1.11764 30.96572 2.49887 -12.07149 -20.09345 -7.43175 -4.33192 -2.97886 37.71672 11.55386 6.05404 -30.84212 -10.5254 5.05762 3.56822
-0.00217 -0.00137 -0.01467 172.72595 -31.35549 1.10743 39.85517 1.85037 -5.29059 -6.79042 -4.21736 -0.45332 -23.95837 -15.07756 2.87235 38.90835 89.81814 8.98952 -0.99157 -28.7124 15.5777 1.36192 38.67897 -96.28324 18.90488 1.13916 30.69793 2.37639 -12.14183 -20.00546 -7.37752 -4.2987 -2.95565 38.48746 11.33065 6.11655 -32.45395 -10.53553 5.05154 3.56492
-0.00275 -0.0015 -0.01562 172.65726 -31.25334 1.33106 39.37981 1.93891 -4.81224 -6.7196 -4.23558 -0.47377 -23.75662 -15.26621 2.83835 38.58663 89.42669 9.14608 -1.09879 -28.68203 15.33471 1.58267 37.97139 -96.49404 19.35177 1.16373 30.36297 2.27009 -12.24376 -19.91184 -7.31856 -4.26307 -2.93061 39.10792 11.11657 6.11388 -34.04994 -10.57344 5.07491 3.58017
-0.00363 -0.00158 -0.0164 172.57643 -31.28115 1.57651 39.01693 2.02342 -4.25762 -6.63239 -4.18747 -0.48981 -23.48607 -15.38487 2.61703 38.08406 89.6359 9.38636 -1.08611 -28.72673 15.11742 1.7351 37.41638 -96.65033 19.75638 1.18192 30.16732 2.13033 -12.2793 -19.82929 -7.26969 -4.23265 -2.90951 40.04326 10.88223 6.24802 -35.66617 -10.55374 5.03729 3.55701
-0.00523 -0.00154 -0.01671 172.45779 -31.67704 1.88966 38.97554 2.09646 -3.48012 -6.50381 -3.9556 -0.49362 -23.01552 -15.30697 1.84895 37.05777 91.61195 9.88149 -0.7152 -28.96751 14.9612 1.70502 37.26437 -96.64567 20.04842 1.18185 30.37668 1.89223 -12.12841 -19.78384 -7.24781 -4.21573 -2.89885 41.86955 10.59939 6.76579 -37.4472 -10.36614 4.8212 3.4214
-0.00713 -0.00146 -0.01685 172.32742 -32.20101 2.22306 39.04451 2.1655 -2.62867 -6.35805 -3.65751 -0.49304 -22.47813 -15.1596 0.89941 35.85563 94.16885 10.45606 -0.22886 -29.28546 14.83247 1.60599 37.26804 -96.58832 20.29716 1.17547 30.72109 1.62186 -11.91149 -19.74812 -7.23618 -4.20418 -2.89223 44.00652 10.2947 7.41816 -39.2278 -10.12251 4.54604 3.24856
-0.00893 -0.0014 -0.01708 172.20581 -32.65923 2.54238 39.05485 2.23666 -1.81979 -6.21787 -3.39076 -0.49453 -21.97839 -15.04701 0.05351 34.75097 96.383 10.97786 0.18499 -29.57466 14.69739 1.53453 37.21128 -96.56256 20.56373 1.17253 30.98962 1.3703 -11.72771 -19.70372 -7.22034 -4.19071 -2.88402 45.98445 9.99558 8.00526 -40.93797 -9.91087 4.30502 3.09727
-0.01057 -0.00131 -0.01728 172.0712 -33.15072 2.88324 39.102 2.30667 -0.97245 -6.08728 -3.1183 -0.49566 -21.44703 -14.92088 -0.88459 33.56896 98.93234 11.57011 0.68177 -29.83758 14.5367 1.47643 37.11308 -96.50462 20.83886 1.16732 31.32218 1.10057 -11.53114 -19.67784 -7.20268 -4.1751 -2.87477 48.0406 9.71554 8.61522 -42.94853 -9.67145 4.03262 2.92612
-0.01262 -0.00127 -0.01749 171.95902 -33.60185 3.18287 39.0976 2.37797 -0.1883 -5.93237 -2.84243 -0.49656 -20.96664 -14.80631 -1.67061 32.50994 100.91938 12.03457 1.03554 -30.1732 14.43552 1.37714 37.13582 -96.50095 21.08485 1.16513 31.55021 0.86181 -11.34486 -19.61502 -7.1912 -4.16519 -2.86865 50.00467 9.38967 9.20287 -44.33052 -9.47673 3.81216 2.78783
-0.01566 -0.00133 -0.01769 171.92707 -33.92221 3.37348 38.93312 2.45501 0.40776 -5.71758 -2.57049 -0.49732 -20.63562 -14.74246 -2.01754 31.80417 101.22563 12.12528 0.94458 -30.69338 14.49507 1.15564 37.47324 -96.66281 21.26981 1.17455 31.48296 0.71001 -11.20978 -19.45333 -7.19445 -4.16992 -2.87023 51.66098 8.95143 9.75247 -44.00208 -9.41817 3.74479 2.74672
-0.01913 -0.00145 -0.01789 171.91488 -34.19543 3.51991 38.71169 2.53316 0.93653 -5.47879 -2.29818 -0.49809 -20.35963 -14.69235 -2.20034 31.23409 100.94388 12.08482 0.7092 -31.28344 14.61304 0.89974 37.92332 -96.88064 21.42522 1.18688 31.30078 0.59168 -11.08634 -19.25302 -7.20354 -4.18011 -2.87482 53.20941 8.46682 10.26487 -43.0377 -9.40653 3.73258 2.74043
-0.02246 -0.00156 -0.0181 171.8839 -34.4821 3.68034 38.50957 2.61014 1.4935 -5.24843 -2.02766 -0.49924 -20.06362 -14.63477 -2.44175 30.62084 100.92095 12.10543 0.55471 -31.83988 14.70215 0.67636 38.30954 -97.07099 21.58843 1.19676 31.15396 0.4623 -10.95299 -19.06684 -7.20982 -4.18769 -2.87806 54.79257 7.99687 10.75659 -42.34628 -9.37431 3.69834 2.72002
-0.02556 -0.00159 -0.01825 171.89521 -34.80617 3.86778 38.33693 2.69019 2.06425 -5.02615 -1.74706 -0.49869 -19.74439 -14.57985 -2.75716 29.92212 100.95062 12.12295 0.34191 -32.40731 14.80174 0.37966 38.75509 -97.26797 21.77414 1.21123 31.08342 0.31434 -10.83596 -18.89571 -7.21706 -4.19618 -2.88144 56.44765 7.55066 11.40972 -41.71718 -9.33779 3.64945 2.69128
-0.02924 -0.0018 -0.01853 171.82167 -35.0404 3.98738 38.09057 2.76367 2.58788 -4.7838 -1.48935 -0.50166 -19.48724 -14.52365 -2.87687 29.4375 100.72749 12.11437 0.21214 -32.96691 14.89332 0.22793 39.10122 -97.46532 21.90625 1.21684 30.82454 0.21328 -10.68966 -18.6836 -7.22363 -4.20379 -2.88506 57.9224 7.0475 11.71854 -40.81407 -9.32108 3.64464 2.68844
-0.03426 -0.00249 -0.01913 171.5225 -35.02936 3.93727 37.63198 2.82279 3.00974 -4.47415 -1.28581 -0.51517 -19.39183 -14.46143 -2.49544 29.5017 99.91114 12.06806 0.36902 -33.49139 14.9455 0.49047 39.14865 -97.64908 21.90075 1.19787 30.07614 0.23475 -10.4499 -18.37097 -7.22632 -4.20959 -2.88968 58.92923 6.3709 11.06361 -39.25118 -9.35717 3.751 2.75062
-0.03986 -0.00337 -0.01986 171.13453 -34.93038 3.81904 37.10524 2.8743 3.38369 -4.14952 -1.10739 -0.53212 -19.35765 -14.39837 -1.92077 29.78138 98.86383 11.99903 0.6098 -34.00407 14.98782 0.90009 39.09039 -97.83215 21.84242 1.16978 29.14094 0.30192 -10.18197 -18.01802 -7.2283 -4.21393 -2.89422 59.75468 5.64391 10.06709 -37.4456 -9.41043 3.89959 2.83751
-0.04526 -0.00417 -0.02054 170.77877 -34.87686 3.72742 36.62343 2.92693 3.77168 -3.84226 -0.92376 -0.547 -19.292 -14.33457 -1.43577 29.96666 97.94647 11.93869 0.79711 -34.51993 15.03668 1.23824 39.07789 -98.01583 21.80581 1.14553 28.28907 0.34787 -9.93423 -17.68108 -7.23077 -4.21763 -2.89805 60.66099 4.9581 9.24055 -35.78945 -9.44939 4.02715 2.9119
-0.0504 -0.00492 -0.02117 170.45921 -34.79906 3.65259 36.07907 2.99037 4.19089 -3.48557 -0.71376 -0.56398 -19.23939 -14.27297 -0.94228 30.13307 96.90844 11.8813 1.04408 -35.04928 15.07964 1.59189 39.08031 -98.19838 21.77585 1.12279 27.44021 0.39799 -9.65751 -17.35162 -7.23228 -4.22702 -2.90509 61.57609 4.19326 8.3498 -33.94526 -9.51589 4.16422 2.99269
-0.05622 -0.00583 -0.02194 170.04148 -34.75093 3.5272 35.65167 3.02835 4.53348 -3.23358 -0.56479 -0.57743 -19.17875 -14.21014 -0.4165 30.39898 96.06824 11.81336 1.18872 -35.54456 15.13088 1.95214 39.02342 -98.38467 21.72235 1.09458 26.54177 0.44845 -9.43203 -16.99872 -7.23613 -4.22416 -2.90542 62.42399 3.58193 7.51311 -32.44416 -9.53037 4.291 3.06575
-0.06365 -0.00715 -0.0231 169.38803 -34.81081 3.27918 35.54535 3.00708 4.68443 -3.23289 -0.57774 -0.58016 -19.03549 -14.11292 0.09684 30.79527 95.8887 11.72925 1.03008 -35.96508 15.21465 2.2666 38.84052 -98.56672 21.59762 1.05376 25.5574 0.49987 -9.37641 -16.58409 -7.2419 -4.18742 -2.88701 63.19094 3.40424 6.90049 -31.94615 -9.38058 4.37695 3.10977
-0.07176 -0.00861 -0.02441 168.63724 -34.90238 2.98308 35.5624 2.95847 4.75795 -3.34655 -0.65155 -0.57926 -18.89026 -14.02058 0.64478 31.30102 95.90997 11.63513 0.76664 -36.34658 15.30527 2.58905 38.59783 -98.75851 21.45598 1.00726 24.53017 0.54736 -9.37044 -16.15119 -7.25113 -4.13833 -2.86183 63.88496 3.38293 6.35557 -31.80544 -9.18056 4.4511 3.14522
-0.07962 -0.00999 -0.02565 167.9207 -34.97741 2.70859 35.53598 2.91666 4.86286 -3.43446 -0.69754 -0.58011 -18.77545 -13.94604 1.21239 31.81568 95.80216 11.54064 0.55163 -36.73699 15.38789 2.92513 38.37535 -98.95085 21.3333 0.96373 23.51842 0.5897 -9.32613 -15.72826 -7.26154 -4.09531 -2.83995 64.57446 3.29266 5.78602 -31.50712 -9.01422 4.53185 3.18555
-0.08722 -0.01143 -0.02687 167.23906 -35.06071 2.43147 35.45579 2.89939 4.98532 -3.40871 -0.74421 -0.58061 -18.53811 -13.7857 1.6397 32.089 95.83879 11.46371 0.33474 -37.17132 15.4915 3.18933 38.18255 -99.10794 21.15622 0.92005 22.51284 0.66476 -9.34268 -15.28684 -7.25936 -4.05082 -2.81735 65.42004 3.19402 5.17994 -31.18085 -8.80317 4.60927 3.22283
-0.09553 -0.01278 -0.02818 166.46801 -35.13251 2.15087 35.51553 2.82327 5.04946 -3.65008 -0.8047 -0.58097 -18.55477 -13.80683 2.36204 32.88982 95.63387 11.35109 0.09746 -37.49624 15.55229 3.60841 37.91022 -99.35863 21.09532 0.87319 21.49186 0.66785 -9.25063 -14.89268 -7.2854 -4.00586 -2.79437 65.92124 3.14773 4.66882 -30.99957 -8.67247 4.68977 3.26384
-0.10566 -0.01392 -0.02967 165.42831 -35.19157 1.85895 35.95234 2.60282 5.00656 -4.57577 -0.87836 -0.58148 -19.27163 -14.31454 3.91451 35.10528 94.64108 11.11777 -0.18499 -37.60473 15.50114 4.4048 37.47834 -99.7053 21.30393 0.83927 20.39959 0.49239 -8.79377 -14.52989 -7.37822 -3.96823 -2.77441 65.52769 3.2335 4.42155 -31.14452 -8.78104 4.78561 3.31935
-0.11649 -0.01494 -0.03123 164.31041 -35.23416 1.56786 36.52276 2.3221 4.90176 -5.77108 -0.96513 -0.582 -20.24336 -15.00729 5.75738 37.84928 93.41244 10.85384 -0.4822 -37.59097 15.4058 5.36253 36.96307 -100.17056 21.63871 0.79923 19.30451 0.24085 -8.23494 -14.23736 -7.50104 -3.92978 -2.75398 64.78436 3.36257 4.26729 -31.42154 -8.971 4.88399 3.37837
